<svg xmlns="http://www.w3.org/2000/svg" id="_01" data-name="1" viewBox="0 0 1080 1080"><defs><style>.cls-1{fill:#fff;opacity:.5}.cls-2{fill:#4e356f}.cls-3{fill:#3ec277}.cls-4{fill:#ae57db}.cls-5{fill:#2fa760}.cls-7{fill:#f9f9fb}.cls-10{fill:#f3a030}.cls-17{fill:#516fb0}.cls-19{fill:#526fb2}.cls-20{fill:#c08081}.cls-21{fill:#8c4c74}.cls-36{fill:#c2e4f7}</style></defs><path d="M859.69 436a39.73 39.73 0 0 0-31.07-22.85c-18.9-2.21-36.29 9.28-54.24 15.59-43 15.12-95.14-2.51-120.12-40.59-13.1-20-20.3-45.6-40.83-57.81-18-10.72-40.73-7.55-61.46-4.25-25.89 4.13-52.06 7.95-78.24 6.43s-52.65-8.74-73.44-24.71c-11.21-8.62-21.12-19.9-34.7-23.81-15.08-4.33-31.55 1.7-43.79 11.51-32 25.69-38.35 75.54-19.64 112.09s57.85 59.8 98.35 66.61c19.11 3.22 38.65 3.15 57.86.82 28.1-3.42 55.12-11.15 83.36-14.2 36-3.89 72.56-6.41 108.47.16 54.12 9.91 105.53 39.79 160.33 34.92 17.21-1.53 35.37-7.43 45.36-21.53a39.73 39.73 0 0 0 3.8-38.38ZM360 364.12c-1.6-.09-5.09.38-6.32 1.23-2.51 1.73-3.77 4-3.68 7.73.08 3.05.94 8.82-1.32 8.82-2.86-.7-2.33-4.89-2.92-7.78s-1.41-5.25-3.79-7c-4.18-3-13.08 2.13-13.59-3-.35-3.49 4.93-2 5.12-2 3.67-.1 4.47.18 7.26-1.14 3.35-1.59 3.61-4.18 3.49-7.83-.05-1.31 0-3.8-.19-5.09a2.83 2.83 0 0 1 2.19-3c1.65-.22 2.15 2 2.24 3.64.12 2.07.2 4 .41 6.1s1.18 4.26 3.09 5c2.1.88 5 0 7 .26 2.25.32 4.94-.17 5.26 2.07.27 1.99-2.31 2.1-4.25 1.99Zm466 105.79a6.45 6.45 0 1 1 6.44-6.45 6.45 6.45 0 0 1-6.44 6.45Z" class="cls-1"/><path d="M858.74 583.49c-31.19-60-103.06-97.25-169.38-84.09-34.17 6.79-65.12 25.38-99.28 32.26-55.46 11.18-111.69-9.44-165.63-26.48S310.06 474.83 259 499.13c-44.46 21.14-73.09 69.1-76.91 118.19s15.08 98.3 45.78 136.79c20.49 25.7 46 47 73.72 64.52 22.39 14.16 42.5 26.31 68.74 30.46q50.18 7.92 100.93 11.24a1111.34 1111.34 0 0 0 200.7-5c30.4-3.53 61-8.42 89.23-20.22a193.14 193.14 0 0 0 78.38-60.42c41.08-53.69 50.37-131.22 19.17-191.2ZM259.91 725.62c-1.6-.09-5.09.38-6.32 1.23-2.5 1.74-3.77 4.06-3.67 7.73.07 3 .94 8.83-1.32 8.83-2.87-.71-2.34-4.9-2.93-7.79s-1.4-5.25-3.79-7c-4.17-3-13.07 2.13-13.59-3-.35-3.49 4.94-2 5.12-2 3.68-.1 4.47.18 7.26-1.14 3.36-1.59 3.62-4.18 3.49-7.83 0-1.3 0-3.79-.19-5.09a2.84 2.84 0 0 1 2.19-3c1.65-.21 2.16 2 2.25 3.64.11 2.07.19 4 .4 6.1s1.18 4.26 3.1 5.06c2.1.87 5 0 7 .25 2.24.32 4.93-.17 5.25 2.08.24 1.93-2.34 2.05-4.25 1.93Zm21.59 26.3a6.45 6.45 0 1 1 6.45-6.44 6.44 6.44 0 0 1-6.45 6.44Zm59.43-94.24c-5.11 10-14.72 16.9-24.86 21.63-17.94 8.37-46.85 14-65.68 5-18.52-8.88-30.85-33.66-32.41-53.19-1.84-23.22 9.57-47.26 29.26-59.71s46.87-12.29 65.88 1.16c14.48 10.25 23.42 26.77 28.49 43.77 4.04 13.55 5.77 28.78-.68 41.34Zm37.07-96.8c-1.61-.1-5.1.37-6.32 1.22-2.51 1.74-3.78 4.06-3.68 7.74.08 3 .94 8.82-1.32 8.82-2.87-.7-2.33-4.89-2.93-7.78s-1.4-5.26-3.78-7c-4.18-3-13.08 2.13-13.6-3-.34-3.49 4.94-2 5.12-2 3.68-.1 4.48.19 7.27-1.14 3.35-1.58 3.61-4.17 3.49-7.82-.05-1.31-.05-3.8-.19-5.1a2.81 2.81 0 0 1 2.18-3c1.66-.22 2.16 2 2.25 3.63.11 2.08.2 4 .4 6.11s1.18 4.25 3.1 5c2.1.87 5 0 7 .26 2.25.32 4.94-.18 5.25 2.07.22 1.99-2.36 2.11-4.24 1.99ZM411.82 539a6.45 6.45 0 1 1 6.45-6.45 6.44 6.44 0 0 1-6.45 6.45Zm369.6 54.24a2.72 2.72 0 1 1-2.72 2.71 2.71 2.71 0 0 1 2.72-2.76Zm18 162.53c-2.81 7-9.44 12.06-16.69 14.18s-15.06 1.61-22.43-.1c-26.37-6.12-48.29-28.38-54-54.84-2.92-13.53-1.69-28.3 5.43-40.16s20.64-20.2 34.44-19.19 26.63 12.6 27.23 26.42c.44 10.3-4.25 20.91 3 30 5.59 7.06 14.08 10.83 19.25 18.79 4.68 7.27 6.97 16.74 3.74 24.85Zm35.82-82.89c-1.61-.09-5.1.38-6.32 1.23-2.51 1.74-3.77 4.06-3.68 7.74.08 3.05.94 8.82-1.32 8.82-2.87-.71-2.33-4.9-2.92-7.79s-1.41-5.25-3.79-7c-4.18-3.05-13.08 2.12-13.59-3-.35-3.49 4.93-2 5.11-2 3.68-.1 4.48.18 7.27-1.14 3.35-1.59 3.61-4.17 3.49-7.83-.05-1.3 0-3.79-.19-5.09a2.83 2.83 0 0 1 2.18-3c1.66-.21 2.16 2 2.25 3.64.11 2.07.2 4 .4 6.1s1.18 4.26 3.1 5.06c2.1.87 5 0 7 .25 2.25.32 4.94-.17 5.26 2.08.2 1.88-2.38 2.05-4.28 1.88Z" class="cls-1"/><path d="M540.57 520.82c-23.07-3.22-37.05-25.05-31.67-49.36 1.22-5.51 3.35-10.79 4-16.44 1.71-15.12-4.21-23-19.13-25.45-14.13-2.32-28.4-3.18-42.68-3.95A81.67 81.67 0 0 1 419.8 418c-21.94-10.49-25.1-33.53-6.8-49.76a59.78 59.78 0 0 1 32.76-14.54c6.94-.9 13.77-2.15 20.27-4.89 17.33-7.33 24.22-20.67 19.9-38.94s-8.89-36.52-8.79-55.5c0-6.68.67-13.28 3.47-19.48 2.28-5 5.67-9.31 10.95-11 25.83-8.42 47.18-5.27 65.16 15.55a46.54 46.54 0 0 1 5.29 8.42c7.28 13.42 22.36 14.16 30.9 1.56a67.2 67.2 0 0 1 16.21-16.79c21.74-15.86 47.53-9.44 59.24 14.9 7.13 14.81 6.75 30.32 2.73 45.8-3.54 13.59.13 20 14 21.82 10.05 1.34 20.18 2 30.3 2.71a50.16 50.16 0 0 1 23.07 7.2c8.72 5.3 10.77 12.27 7 21.77-2.08 5.24-4.26 10.47-5.88 15.86-3.9 12.94-1.26 20.66 9.62 28.68 6.83 5 14 9.67 20.7 14.79 17.3 13.14 27.69 30 28.79 52.29.79 16.24-.1 32.2-3.68 48.05-5.78 25.61-21.79 42.37-44.71 54.07-33.62 17.18-66.89 14.85-100.45.33-9.92-4.29-18.86-9.79-25.62-18.4-1.82-2.83.81-5 1.12-7.47.25-2.06 2.58-4.38-.65-6.08a4.53 4.53 0 0 1-1.61-2.28c-6.84-4.59-5.87-11.63-5.65-18.36.06-2 .92-3.88 1.26-5.85.62-3.66-.71-6-4.34-7.29-8.88-3.21-10.08-5.52-8.33-15 .61-3.31 1.53-6.72-2.22-8.88-3.54-2-6.74-.88-9.74 1.32a44 44 0 0 1-4.87 3.48c-5.47 2.94-10.15 2.2-14.43-2.32-.8-.85-1.5-1.79-2.29-2.65-4.21-4.55-6.93-5.49-12.33-2.75-4.36 2.21-7.84 1.5-10.74-1.78-5-5.69-11.65-3.71-16.61 1-8.2 7.82-8.38 22.78 4.15 27.54 4.43 1.68 6.19 4.67 5.21 9.38-.87 4.19.78 8.24 1 12.38.09 1.88.84 4.26-2.59 3.93Z" class="cls-2"/><path d="M327.51 837.45c-4.52-4.62-6-10.5-7-16.62a93.1 93.1 0 0 1 .42-32.2c2.35-12.38 9.77-21.21 20.68-27.18a62.51 62.51 0 0 1 23.94-7.83c3.2 4.51 3.27 9.36 1.58 14.41-3.55 1.42-7.42 1.57-11 2.81a39.66 39.66 0 0 0-6.92 2.81c-5.24 3-5.55 6.92-.79 10.51a33.78 33.78 0 0 0 9.17 5 365.9 365.9 0 0 0 54.93 14.61A920 920 0 0 0 509 816.28c18.18 1.43 36.55.67 54.86-.16s36.78-3 55.17-4.44c20.92-1.66 41.81-3.69 61.58-11.55a35.72 35.72 0 0 0 6.69-3.34c8.89-5.88 8.63-15.11-.54-20.73-3.25-2-7.11-2.92-9.85-5.78-.93-1.74-.58-3.55-.28-5.34 1.84-10.74 3.46-21.52 5.29-32.27.36-2.13.57-4.38 3.37-4.81 3.27 3.78 3 8.72 3.86 13.13 2.64 13.12 9.09 24 18 33.65 7.8 8.46 14.21 17.88 18 28.9 1.28 3.77 2.6 7.53 2 11.62-5.2 3-9.41 7.38-14.39 10.71-29 19.44-60.75 32.83-94.22 42.38-18.74 5.35-37.69 9.82-57.19 11a583.28 583.28 0 0 1-69.72.52c-14.42-.86-28.89-.9-43.18-3.29-36.23-6.06-71.42-15.7-105.09-30.58-5.51-2.45-10.47-5.83-15.85-8.45Z" class="cls-3"/><path d="M481.52 546.53a66.24 66.24 0 0 1 25.13-1.46 14.25 14.25 0 0 0 11.51-3.38c5.08-4.2 11-4.26 16.74-1 1.86 1.06 3.55 2.43 5.32 3.66 1.95.68 3 2.47 4.53 3.67a22.79 22.79 0 0 0 16.88 5.13c12.44.71 17.34 8.91 19.6 19.74-2 12.41-5.64 24.5-7.75 36.92-2.49 14.68-4.65 29.38-5.87 44.25a107.06 107.06 0 0 0 .91 27.66c2.14 12.1 7.5 22.22 18.08 29.07a5.36 5.36 0 0 1 2 2.15c.13 2.71-2.16 3.11-3.89 3.8-17.13 6.88-34.52 12.9-53 15.19a2.85 2.85 0 0 1-2.74-1.12c-1.11-3.13-1.29-6.45-1.89-9.69a48.42 48.42 0 0 0-7.43-18.76c-2.78-4-3.7-4.22-7.18-.82-3.9 3.81-7.71 7.72-11.59 11.55-1.4 1.38-2.62 3-4.64 3.62-6.28-.88-11.75-4.13-17.7-6-2.67-.84-5.32-1.75-8-2.56a110.73 110.73 0 0 0-12.07-3.73 34.33 34.33 0 0 0-5-1.34 31.74 31.74 0 0 0-4.45-.84c-7.17-1.84-14.7-2.13-21.61-5-9.75-8.49-14-19.91-16.85-32-.31-1.29-.42-2.62-.82-3.89a21.9 21.9 0 0 1-.52-3.78c-2.43-17.17-.7-33.36 9.68-48.1 10.24-14.47 20.8-28.47 33.3-41.04 4.92-4.94 9.13-10.53 14.77-14.8 4.44-3.35 8.92-6.32 14.55-7.1Z" class="cls-4"/><path d="M327.51 837.45c1.8-1.75 3.16.11 4.35.8 16.8 9.7 35 15.9 53.35 21.8a403.24 403.24 0 0 0 72.55 16.1c9.54 1.22 19.12 1.49 28.7 2.06 14.11.84 28.21.7 42.32.89 46.13.62 90-9.4 132.34-27.3 18.25-7.72 35.82-16.63 52.07-28a121.76 121.76 0 0 0 9.68-7.76c1.37-1.19 2.51-2.2 4.27-.86 2.47 9.22 0 17.8-4.51 25.58-7 12-18.06 20-29.48 27.43a54.84 54.84 0 0 1-17.88 9c-21.46 8.09-43.31 14.67-66.06 18.27a420.42 420.42 0 0 1-89.45 4.08c-39.92-2.24-79.18-8.71-117.94-18.37-5.47-1.36-10.81-3.23-16.22-4.81-1.55-.45-3.06-1.5-4.78-.54-6.16-2.36-12.61-4-18.26-7.59-7.79-5.19-16.45-9.1-23.37-15.61-4.7-4.48-9.19-9.02-11.68-15.17Z" class="cls-5"/><path d="M561.82 554.4c-9.22 1-16.49-2.15-21.6-10a63.67 63.67 0 0 0 6.3-5.47c2.93-3.27 4-6.9.29-10.46-2.38-2.31-4.49-9.41-4.74-11.08-.74-5-2.1-10.05-.79-15.27.66-2.6-.86-4.47-3.43-5.27-7.28-2.26-11.59-7.12-12.15-14.71-.58-7.81 3.1-13.78 9.28-18.23 5.22-3.76 9.86-3.38 14.66 1.17 3.23 3.07 6.06 4.75 10.67 1.75 4-2.61 8.61-2.27 12 2.12.71.92 1.6 1.69 2.36 2.57 5.66 6.55 10.44 7 17 1.35 3.11-2.68 6.28-4.94 10.72-3.85s6.36 3.7 5.6 8.35c-.3 1.79-.75 3.57-1.12 5.35-1.3 6.17.72 9.36 6.92 10.93s8 4 6 10c-2.26 6.54-.39 12.72.06 19.06.12 1.74.83.69 1.46.48 3.24-1 3.17 1.13 3.12 3.26-.85 4.3-3.22 7.87-5.33 11.12 2.56-2.37 2.78-6.9 6.45-9 1.86-1.05 3.36-1.41 2.51 1.61-1.16 4.11-2.45 8.18-3.68 12.27-4.53 4.66-6.65 10.47-7.88 16.69a9.58 9.58 0 0 1 0 2.27c-1.35 2.86-.5 6.81-4.19 8.52-8-5.48-16.46-7.88-26-4.69a2.39 2.39 0 0 1-1.85-.54c-1.37-3.45.21-6.6 1-9.83s2.6-5.34 5.35-7.25a44.32 44.32 0 0 0 10.82-11.4c1.62-2.33 3.83-4.08 5.74-6.12.25-.21.46-.47.72-.66 1.58-1.21 2.76-4.35 4.91-3.07 2.33 1.39.35 4.06-.13 6.16-.33.74-.52 1.54-1 2.43.77-1 1.08-2.08 1.8-2.89s.37-1.89.27-2.86.49-2.46-.92-3.06-2.14.44-3 1.23-1.63 1.63-2.47 2.42c-5.25 4.58-8.7 10.76-13.87 15.41-2.22 2-4.39 4-7.53 4.41-5.43.27-10.83.28-16.08-1.45-2.71-.9-4.85-.32-6 2.49a5.77 5.77 0 0 1-2.25 3.74Z" style="fill:#c08080"/><path d="M801 566.72c.24-17.74 11.53-32.56 28.59-37.13 15.71-4.21 31.45-8.33 47.18-12.46 10.6-2.77 15.54 0 18.54 10.57a90.25 90.25 0 0 1 2.84 11.59c1.25 8.5-1.7 12.8-10 15-14.27 3.83-28.53 7.7-42.87 11.26-4.15 1-5.14 2.44-3.87 6.75 4 13.69 7.56 27.53 11.25 41.32 2.67 10-.55 15.62-10.44 18.28-3.84 1-7.65 2.23-11.53 3.11-6.95 1.57-12.75-1.62-14.68-8.53-4.89-17.58-9.54-35.23-14.19-52.89a46.12 46.12 0 0 1-.82-6.87ZM615.66 560.51l.74-1.33c10.33 2.3 20.69 4.42 30.72 7.94q27.75 9.75 32 38.71c1.37 9.16 2.26 18.39 3.37 27.59.65 7.1 0 14.21.32 21.31.12 3-1.41 3.79-3.92 3.73a23.25 23.25 0 0 1-5.87-1c-9.57-2.72-19.51-3.6-29.18-5.83a3.75 3.75 0 0 1-2.83-1.77c-3.46-26.24-8.44-52.12-18.25-76.87-1.76-4.51-5.13-8.08-7.1-12.48Z" class="cls-3"/><path d="M385.55 711.4c.54 4.47-.89 8.88-.42 13.34-.85 13.16 1.63 25.37 10.07 36a40.15 40.15 0 0 0 7.28 6.7c1.26 1 3.47 1.69 3 3.54s-2.71 1.45-4.31 1.72c-9.26 1-18.53 1.89-27.84 2.08-5.28.11-7.11-1.88-6.47-6.52.59-5-.6-9.76-1.29-14.6.79-7-1.35-13.79-2.13-20.68-1.41-12.46-3.11-24.88-4.69-37.32-.61-4.75-1.06-9.52-1.85-14.23-1.16-6.9.12-9.48 6.61-11.86 8.41-3.07 16.83-6.1 25.52-8.34 6.69-3.69 13.59-6.24 21.38-3.89.12 1.3.24 2.6.35 3.9 1.18 11.19 2.58 22.35 4.51 33.44-1.68 2.67-4.64 2.54-7.12 2.69-8.81.55-16.24 3.35-21.06 11.24a2.47 2.47 0 0 1-1.68 1" class="cls-7"/><path d="M410.39 657.3c-7.34.14-14.31 2.31-21.38 3.89 1.47-25.83 6.23-51 16-75A77.54 77.54 0 0 1 412 573c9.73-14.84 23-24.19 41.21-25.19 9.44-.51 18.85-1.74 28.33-1.27-15.34 6-24.85 19-35.59 30.38-8.54 9.06-15.58 19.38-23.21 29.21-11.93 15.35-14.84 32.53-12.35 51.17Z" class="cls-3"/><path d="M643.38 650.38c8.22 1.47 16.44 2.91 24.65 4.42 2.6.47 5.16 1.11 7.73 1.69 8.11 1.84 6.32 1.45 8.38 1.9 1 .22 2.07.67 3.94 1.2 6.92 2 7.92 4.12 6.06 11.12-3.25 12.26-4.38 24.93-6.78 37.36-1 5-1.55 10.08-2.56 15.07-.34 1.72-.58 3.23.45 4.72-3.4 4.68-2.66 10.4-3.74 15.63-1.81 8.77-3 17.67-4.48 26.51-1.44 1.83-3.37 1.48-5.28 1.21-3.19-2-5.23-4.92-6.92-8.16.26-2.24 2.13-3.23 3.55-4.59 11.32-10.88 14.08-30.12 6.09-42.6-5.51-8.62-13.93-12.39-23.58-14.18-3-.55-6.43-.2-8.44-3.35-1.23-4.34.34-8.6.44-12.9.23-9.33-.77-18.61-1-27.91-.11-2.46-.35-5.05 1.49-7.14Z" class="cls-7"/><path d="M573.53 224.87a26.32 26.32 0 0 1-15.73-4.53c-8.52-5.78-17.07-11.52-25.53-17.38-6-4.12-6.65-8.33-2.61-14.4.92-1.38 1.83-2.77 2.81-4.12 3.94-5.41 8.14-6.25 13.67-2.52 7.45 5 14.88 10 22.15 15.28 2.86 2.06 4.35 1.69 6.24-1.25 4.85-7.54 10-14.89 15.1-22.26 3.77-5.44 7.45-6.25 13.2-3.09 1 .56 2 1.2 3 1.85 9.12 6.07 9.67 8.73 3.59 17.63-5.44 8-11 15.83-16.34 23.83-5.01 7.43-12.26 10.32-19.55 10.96Z" class="cls-4"/><path d="M309 621a25.41 25.41 0 0 1-3.62 11.34c-5.3 8.43-10.51 16.93-15.8 25.36-3.71 5.9-7.25 6.72-13.32 3.18q-1.93-1.12-3.83-2.33c-6.48-4.09-7.28-7.41-3.24-14 4.41-7.22 8.73-14.51 13.41-21.56 1.78-2.68 1.29-3.78-1.27-5.29-7.29-4.31-14.44-8.86-21.63-13.33-6.45-4-7.25-7.38-3.29-14 .68-1.14 1.39-2.26 2.11-3.38 4.17-6.45 7.42-7.26 14.05-3.21q13 7.94 25.77 16.09c7.35 4.7 10.54 11.7 10.66 21.13Z" style="fill:#01bfd9"/><path d="M826 406.28c-.71 5.23 0 11.89-5.14 17.08-5.68 5.79-12.22 5.81-17.72-.2-3.33-3.64-5.06-8.17-6.78-12.65-2.83-7.37-6.86-13.22-14.52-16.72a41.43 41.43 0 0 1-16-13.23c-5.14-7-3.26-12.66 4.93-15.3 25.45-8.19 55.15 13.28 55.23 41.02ZM725.75 269.93c0 20.08-12 31.53-29.41 29-9.94-1.44-12.72-7.07-7.65-15.69a25.17 25.17 0 0 0 3.08-16.24c-.84-7.06.48-13.53 6.12-18.57 6.89-6.15 16.77-5.32 22.32 2.06 4.5 5.96 5.85 12.86 5.54 19.44ZM477 438.17c6.9.43 13.15 4 17.93 9.89 4.13 5.06 3.38 11.61-2.63 15.06-8.44 4.85-15.64 11.1-23.23 17-5.91 4.57-13 4.34-19.13.34-4.51-2.95-6.69-9.78-5.31-16.59 2.66-12.94 18.37-25.79 32.37-25.7ZM445.7 334.88a16.77 16.77 0 0 1-8.85-2 12.38 12.38 0 0 1-1.12-21.39c6.4-4.1 13.28-4.19 19.93-.69 4.91 2.58 7.68 6.76 7 12.66-.62 5.72-4.25 8.71-9.32 10.5a22.1 22.1 0 0 1-7.64.92ZM362.56 868.16c6.44 1.67 12.91 3.28 18.25 7.59-4.17 10.77-8.38 21.53-12.5 32.33-.9 2.36-2.3 3.67-4.85 3s-2.58-2.63-2.49-4.76q.84-19.09 1.59-38.16ZM675.27 877.12a98.28 98.28 0 0 1 17.88-9c.4 11.77.82 23.53 1.17 35.3.08 2.68 1.16 6.11-3 6.8s-4.17-3-5.16-5.42c-3.64-9.18-7.25-18.43-10.89-27.68Z" class="cls-2"/><path d="M553.56 339.79c.27 3.06-1.37 3.36-3.7 2.47a77.46 77.46 0 0 0-27.28-4.7 12.87 12.87 0 0 1-12-17.34c1.44-3.81 1.17-7-1.18-10.28a26.41 26.41 0 0 1-4.55-11c-.77-4.58-1.31-9.65 3.21-12.76s9.37-1.61 13.66.84c6.3 3.58 6.2 3.74 11.3-2 2.45-2.75 6.37-2.74 9.24.13a6.13 6.13 0 0 1 1.87 2.88c1.05 6.19 3.63 8.54 10.26 6 3.38-1.28 7.66 3.54 8.06 7.72.39 4-.71 7.92-.93 11.88-.37 6.62-1.46 13.21-1 19.87a10.86 10.86 0 0 1-2.25 7c-2.92 1.6-3.4-1-4-2.6a62.94 62.94 0 0 0-25.52-31.6c-.62-.26-1.2-.62-2-.92a20 20 0 0 0 2.1 1.18 60.21 60.21 0 0 1 23.32 27.08c.97 1.97 2.32 3.84 1.39 6.15Z" class="cls-3"/><path d="M751.26 511.52h-26.94a24 24 0 0 1-7.87-1.07c-2.29-.78-3.57-2.4-3.19-4.95s2.23-3.3 4.39-2.92c3.75.65 5.07-.3 4.24-4.35a3.76 3.76 0 0 1 3.92-4.7c4 0 4.79-2.07 5-5.65.74-10.76 7-16.54 16.46-15.71 6.12.54 10.07 4 11.07 10.22.65 4 1.89 6.17 6.71 5.76 7.41-.62 13.38 5.09 13.95 12.63.17 2.29 1.14 2.79 3.16 2.63 2.51-.19 5.56-.44 5.66 3.08.11 3.83-2.93 4.93-6.17 5-10.14.08-20.29 0-30.43 0Z" class="cls-7"/><path d="M704.47 528.47a32.74 32.74 0 0 1-6.69 17.95c-2.65 3.59-5.92 5.56-10.07 2-1.68-1.45-2.91-1-4.23.5a29.74 29.74 0 0 1-4.26 4.14c-2 1.45-4.15 2.92-6.82 1.38-2.51-1.45-4.08-3.67-3.86-6.51.34-4.33-.44-6.14-5.47-4.8s-11.82-3.33-13.39-8.26.48-9.44 5.55-10.32c6.23-1.08 9.69-3.62 10.37-10.41.43-4.17 4.64-4.76 8.32-4.11a16 16 0 0 1 8.13 4.6c1.49 1.42 2.45 2.24 4.33.08 3.54-4.09 6-4 10.13-.5 3.4 2.84 5.46 6.65 7.79 10.28-2.49 2.06-5.63 1.89-8.52 2.23-4.31.52-8.53 1.4-12.76 2.26a74.5 74.5 0 0 0-10 2.74c8.43-2.39 16.83-5 25.76-4.56 1.99.07 4.08-.31 5.69 1.31Z" class="cls-3"/><path d="M618.86 273.81h-18.41c-1.31 0-2.63.12-3.84-.71-2-1.36-4.1-2.66-3.07-5.52a4.09 4.09 0 0 1 5.71-2.52c3.87 1.56 4.66-.06 5.35-3.5.92-4.64 3.93-7.78 9-7.78 3 0 4-1.36 4.5-4a20.8 20.8 0 0 1 1.85-6.14c2.26-4.32 6-6.7 10.91-6.45a10.36 10.36 0 0 1 9.34 9c.63 4 1.08 6.49 6.28 4.84 3.64-1.16 6.79 2.32 7 7.09.14 3.88-.51 7.61 5.27 8.17 2.13.21 2.86 3 1.22 5.26s-3.78 2.42-6.21 2.45c-5.8.06-11.61.29-17.41.35s-11.63 0-17.44 0ZM505.72 413.63c-10.47 0-20.93-.06-31.4 0-3.23 0-5.79-.81-6-4.34-.2-3 1.22-5.13 4.79-4.76 2.25.23 2.65-1.77 3.34-3.12 2.44-4.7 5.6-7.38 11.18-4.91 1.85.82 2.92-.07 3.95-1.79 4-6.73 8.37-7.44 13.87-2.32 1.43 1.32 2.68 2.09 4.23.59s2.79-1.39 4.22.09 2.14.4 2.92-.89c2.21-3.65 5.24-5.47 9.62-4s5.88 5 6.11 9.29c.35 6.69.51 6.82 7.21 7.09 2.8.11 5.55.5 5.79 4.05.22 3.33-2.61 3.92-5 4.56a19.79 19.79 0 0 1-4.94.36c-9.96.12-19.93.1-29.89.1Z" class="cls-7"/><path d="M653.48 382.32c-6.73.57-9.2-1.4-9.92-7.92-3-27.39 13.63-46.58 41.35-47.7 15.09-.62 28.24 3.25 37.76 15.81 2.73 3.6 4.2 7.87 5.69 12.09.61 1.72 1.09 3.56-.92 4.86-1.53-.94-2.08-2.56-2.76-4.06-8.39-18.66-34.88-27.7-53.34-21.37-6.19 2.12-11.26 5.94-14.3 11.77a61.34 61.34 0 0 0-7.32 29.2c0 2 .13 4 2 5.32a5.91 5.91 0 0 1 1.28.68 1.29 1.29 0 0 1 .48 1.32Z" style="fill:#ed94ab"/><path d="M652.46 381.27c-2.41.86-3.31-.55-3.87-2.53-3.3-11.74 6.15-36.73 16.48-43.11 9.33-5.76 19.57-6.13 29.83-3.69 14.59 3.46 26.26 11 32.15 25.57a9.63 9.63 0 0 1 .39 1.95l-1.93 1.44c-3.09.38-4.28-2.12-5.85-3.94-4.76-5.51-9-11.4-15.38-15.45-14-8.91-39.47-6.35-46.46 16.15a125.21 125.21 0 0 0-4 18.95c-.22 1.61 0 3.39-1.36 4.66Z" class="cls-10"/><path d="M652.46 381.27a73.7 73.7 0 0 1 5.29-27.14c7.81-19.15 30.53-22.9 45.79-14.62 7.09 3.85 11.78 10.12 16.7 16.15a24.89 24.89 0 0 0 5.27 5.23 6.32 6.32 0 0 1-5 2.9c-3.48-.89-5.17-4-7.57-6.2-4.63-4.26-8.68-9.1-14.28-12.32-14.43-8.29-27-1.23-33.43 10.74-3.5 6.54-4.59 13.84-5.53 21.1-.49 3.84-2.08 5.86-6.23 4.55Z" style="fill:#f1e45d"/><path d="M589.58 309.86c-.22 1.05-.53 1.77-2 1.55-8.92-1.38-19.81-12.13-21.55-21.37-1.43-7.59 4-12.64 11.48-10.62 7.72 2.09 14.54 10.7 15.64 20a65.9 65.9 0 0 1 .06 7.44c-3.07 1.23-4.15-1.46-5.46-3.08-2.28-2.83-4.52-5.67-6-7.27 2.05 2 4.46 5.61 7.22 8.91 1.15 1.32 1.91 2.76.61 4.44Z" class="cls-3"/><path d="M658.93 321.59a5.38 5.38 0 0 1-3.1-3.86c-1.16-3.45-2.24-6.4-6.94-4.26-2.17 1-3-1.18-3.28-2.74-1-5-2.75-7.67-8.3-4.55-2.6 1.45-4.92-.46-6.43-2.47-2.18-2.91-4-6.13-5.92-9.19-1-1.48-.13-2.47.83-3.49 4.88-5.18 7.64-5.13 11.86.53 2 2.64 3.79 2.52 6.3.81 5.66-3.86 5.7-3.78 7.71 2.55.88 2.77 1.73 5.49 5.66 4.88 2.21-.34 2.86 1.31 2.88 3.16.09 6.1.16 12.21-1.27 18.63Z" class="cls-10"/><path d="M697.32 451.55c-6.72 1.88-8.82.79-10.9-6.05a38.34 38.34 0 0 1 0-23.5c1.1-3.39 2.16-7.73 6.92-7.19a10.3 10.3 0 0 1 9 8.15c2.65 10.26.21 19.71-5.06 28.62ZM596.61 349.46c-9 .34-18.09.64-24.84-6.95-3.06-3.44-6.54-7.06-4-12.26 1.71-3.59 7.58-4.66 13.56-2.67 8.73 2.9 16.29 7.37 20.41 16.13 2.58 4 2.09 5.21-2.15 5.48a9.32 9.32 0 0 0-2.98.27ZM718.38 425.77c-6-6.62-2.6-27 5.17-31.27 6.15-3.38 13.82 1.31 14.78 8.87 1.17 9.18-4.21 14.85-10.48 20.08a34.62 34.62 0 0 1-3.75 2.4c-3.79-4 1.16-6.1 1.27-9-1.31 1.6-1.83 4.19-3.11 6.32-.9 1.45-1.37 3.51-3.88 2.6ZM591.51 398.7c-5.66-4-12-7.2-15.79-13.37-2.44-4-4.52-8-3.42-13 1.53-7 6.8-9.37 12.94-5.43 5.64 3.61 8.12 9.41 10.11 15.45.47 1.41.74 2.89 1.1 4.33 2.11 5.43-.4 11.53-4.94 12.02ZM606.17 333.83a44.09 44.09 0 0 1 12.58-15.78c5.62-4.57 11.75-4.53 16.2-.34a6.84 6.84 0 0 1 1.85 8.08 17.88 17.88 0 0 1-8.83 9.67c-6.77 3.64-14.09 4.52-21.63 4.31-3.65-.96-3.68-2.25-.17-5.94Z" class="cls-3"/><path d="M653.45 381.66c3.65 0 5-1.69 5.34-5.49.92-10.7 3-21.08 11.37-29 8-7.49 17.71-9 27.46-3.92 9.36 4.87 16 12.85 22.87 20.5-.43 2.36-2.42 2.92-4.23 3.68-5.06-2.21-8-6.87-11.85-10.43a38.42 38.42 0 0 0-10-7.16c-10.29-4.67-20.81 1.3-24.86 9.34-2.44 4.84-3.39 10-3.94 15.3-.29 2.73-.23 5.75-3.33 7.24-2.89.59-5.76 1.56-8.75.56a3.65 3.65 0 0 1-.08-.62Z" style="fill:#4ea9a3"/><path d="m703.33 448.43.89-.79c2.48-1.55 4.65-4 8.08-3 5.12-.24 10.13-1.59 15.33-1.17 6.19.51 10.65 3.14 11.41 7.11s-2.68 8.67-8.2 11.25a15.07 15.07 0 0 1-15.61-1.28c-3.92-2.75-8-5.27-11.91-8-1.32-1.37-.97-2.75.01-4.12ZM661.28 466.93c-3.13-.95-4.48-3.44-4.78-6.34-.88-8.28.49-16.21 5-23.29 2.17-3.37 4.83-6.65 9.71-4.56 3.9 1.67 6.17 6.63 5.48 11.05-1.52 9.71-7 17-14.22 23.1a1.12 1.12 0 0 1-1.19.04Z" class="cls-3"/><path d="M662.23 381.76c2.69-4.47 1.93-9.68 3.1-14.48 2.33-9.6 6.73-17.22 17.23-19.79 7.6-1.87 13.85.93 19.26 5.56 5.15 4.42 9.65 9.59 14.43 14.42-3.45 2.79-5.89 1.77-8.09-1.79-1-1.62-2.77-2.83-4.31-4.06-14.83-11.92-30.9-6-34.44 12.66-.25 1.3-.46 2.62-.58 3.93-.42 4.53-2.57 5.79-6.6 3.55Z" style="fill:#acdaf0"/><path d="M587.5 422.82c6.39-4.65 11.65-10.88 19.22-13.91 6-2.42 11.22-.91 13.18 3.8 2.21 5.31.05 10-6.12 12.78-7.64 3.49-15.77 3.41-23.91 2.93-1.78-.1-2.87-1.5-3.7-3-.35-1.27-.12-2.25 1.33-2.6Z" class="cls-3"/><path d="m587.5 422.82-1.33 2.6c-3.51-3-1.94-6.59-1.1-10 1.44-5.82 4.28-11.12 6.44-16.68 4.73-2.74 4.23-7.64 4.94-12 4.14-9.89 5.12-20.35 6.26-30.89.62-5.7-1.39-6.79-6.1-6.31 2.58-1.15 8 .25 5.08-5.76.88-7-.79-13.7-3.4-20.07a47.13 47.13 0 0 0-8.71-13.78c-.23-4.22-4-6.2-5.9-9.39-.9-1.54-2-3-3.91-5.62 4.63 2 6.34 5.06 8.48 7.6 1.47 1.74 2.41 4 5 4.39 3 6.89 8.07 12.71 10.27 20.08.69 2.29-.41 5.48 2.64 6.9.22 2-4.11 4.09.17 5.95a142.83 142.83 0 0 1-3.83 41.66 9.57 9.57 0 0 1-2 6.15c-3.3 10.44-9.83 19.57-12.32 30.35a18.12 18.12 0 0 0-.68 4.82Z" style="fill:#526eb2"/><path d="M560.12 453.38c-7 .56-13.36-.65-19.77-.89-3.42-.14-3.06-2.85-2.81-5.21.78-7.58.84-7.76-6-9.58-4-1.06-5.2-2.89-3.69-6.8 2.57-6.63 4.06-7.84 8.56-5.74s8.57 4.35 12.78 6.67c2.43 1.34 3.18 3.43 1.54 5.84-2.78 4.12-.81 6.81 2.54 9.15 2.43 1.69 5.13 3.09 6.85 6.56Z" class="cls-10"/><path d="M652.34 474.31a37 37 0 0 1 15.18 11.58 9.42 9.42 0 0 1-1 12.14c-3.4 3.56-6.9 2.39-10.22 0a35.68 35.68 0 0 1-15-23.6c-.75-1.73.22-2.65 1.7-2.72 3.35-.11 7.07-1.29 9.34 2.6ZM600.48 387.58c-.08-2.3.22-4.47 2-6.15 3.8-2.91 7.56-5.88 11.43-8.69 4.43-3.21 9.57-3.65 14.75-3s7.1 5.38 4.29 9.65a19.47 19.47 0 0 1-16.17 9.18 70.35 70.35 0 0 1-16.3-.99ZM686.27 463.56a37 37 0 0 1 16.37 5.44c4.6 2.89 5.27 7.17 4.55 11.72-.61 3.84-4.06 4.18-7.1 3.48-10.51-2.43-19.54-7.31-25.73-16.55 2.85-4.52 7.03-5.96 11.91-4.09Z" class="cls-3"/><path d="M686.27 463.56a17.61 17.61 0 0 0-11.91 4.1c-6.23 2.24-12.52 4.26-19.15 4.95a3.55 3.55 0 0 0-2.87 1.7 17.81 17.81 0 0 0-8.68-1.84c-1.4.1-2.17.62-2.35 2-7.79-.21-15.5.35-23 2.7-1.16.36-2.48.72-3-.6-.7-1.69.87-2.41 2-2.8a54.83 54.83 0 0 1 17.45-3.12 125.14 125.14 0 0 0 23.11-2c1.36-.25 2.6-.46 3.41-1.68h1.23c12.75-2.51 24.87-6.45 34.81-15.34h-.05c2.61.08 3.56-3 6.06-3.15v4.13c-5.2 4.39-11.33 7.39-17.06 10.95Z" style="fill:#526eb1"/><path d="M704.47 528.47a74.51 74.51 0 0 0-32.13 5c-1.19.44-2.66 1.56-3.4-.24s1.21-2.17 2.3-2.48c10.82-3.11 21.77-5.65 33.06-6.31 14.25-.28 28.5-.53 42.48 3 1 .25 1.93.46 2.86.78a1.76 1.76 0 0 1 1.4 1.82c-.14 1.28-1.25 1.54-2.24 1.38-3.42-.57-6.8-1.48-10.24-1.89-11.32-1.26-22.65-3.19-34.09-1.06Z" style="fill:#516fb1"/><path d="M528.61 305.56c13.39 6.91 21.39 18.29 26.79 31.85.62 1.54.55 3.39 2.94 3.13a127.4 127.4 0 0 1 10.43 25.63c.53 1.73 1.64 4.05-.55 4.76-2.52.82-2.28-2-2.79-3.54-3.14-9.56-6.34-19.08-11.88-27.6-4.59-13.79-13.5-24.26-25.1-32.66a1.09 1.09 0 0 1 .16-1.57ZM712.3 444.68l-8.08 3c4.74-5 9.12-10.21 12.2-16.41.87-1.74 2-3.39 2-5.47 2.89-.8 2.91-3.69 4.12-5.71 1-1.62 1-3.84 3.27-5 1.11 2.41-.44 4.08-1.16 5.9-.62 1.59-2.24 3.06-.51 4.9Z" class="cls-17"/><path d="M625.45 528.61a37 37 0 0 1-8.92 11.87l7.8-14a2.65 2.65 0 0 0 1.12 2.13Z" style="fill:#915273"/><path d="M671.37 770.42 677 770c4.84 1.8 9.74 3.61 13.6 7.1 7 6.35 6.43 14.91-1.41 20.1-9.45 6.27-20.33 8.67-31.21 10.95-14 2.92-28.17 3.59-42.28 5.2A726.34 726.34 0 0 1 513.49 818c-10.88-.3-21.73-1.86-32.57-3-10.67-1.16-21.36-2.21-31.95-3.9-24-3.84-48.11-6.82-71.44-14.05-10.28-3.19-20.91-5.34-30-11.6-6.3-4.35-6.06-9.85 1-13.07 5.75-2.63 11.52-5.92 18.33-4.17.5 4.3 2.84 5.64 7.11 5.21 9.18-.91 18.4-1.41 27.6-2.08 1.33 1 3.34-.47 4.48 1.23.64 9.78 3.94 12.67 14 13.23 11.23.63 22.13-1.8 33.16-3 7.8.92 15.1 3.84 22.73 5.52a289 289 0 0 0 58.79 6.41c17.94.25 35.86-.4 53.76-1.24 7.76-.37 15.6-.4 23.32-1.63 1.44-.08 2.89-.17 4.34-.11 12.52.48 24.93 0 36.89-4.38 2.5-.92 4.87-2.15 7.33-3.14 6.28-2.56 9-7.87 11-13.81Z" class="cls-5"/><path d="M612.56 793.12c-7.3 1.84-14.84 1.33-22.23 1.75-22.5 1.29-45.06 2-67.6 1.12a253.22 253.22 0 0 1-64.38-10.71c-1.89-.58-3.86-.88-5.8-1.31-14.93-3.26-28.38-9.93-41.21-18-9.55-6.79-18.19-14.39-23.78-25-2.64-5-3.1-10.38-3.81-15.76.29-4.63 1.16-15.4 1.73-16 4.49-9.72 13-12.59 22.74-13.31 2.14-.16 4.28-.42 6.42-.64a19.87 19.87 0 0 1 12.95.93c6.07 2.12 12.47 2.72 18.69 4.14 1.11.25 2.2.64 3.29 1 1.4.82 3.16.57 4.52 1.51 1.76-.32 3.19.85 4.84 1.06 3.72 1.4 7.62 2.25 11.31 3.75 17.24 5.59 33.75 12.91 50.25 20.35 26.89 12.12 55.11 20.26 83.72 27.17 3.23.78 7.14.53 9.2 4.14 1.21 10.23.49 20.47.42 30.7a4.77 4.77 0 0 1-1.27 3.11Z" class="cls-19"/><path d="M643.44 699.13c3.13.47 6.28.8 9.36 1.44 26.31 5.42 36.41 33.27 20 54.91-2.24 3-5.27 5-7.7 7.73a3.59 3.59 0 0 1-2.44.06c-12.66-4.1-25.86-4.91-38.92-5.28-14.35-.4-27.71-4.72-41.29-8.18a425.39 425.39 0 0 1-45.35-14.76c-2.08-.79-5.06-.8-5.7-3.9 14-2.8 27.81-5.95 41.14-11.06 5.39-2.07 11-3.71 16-6.7 2.71-1.19 5.07.6 7.61.93 5.52.73 11 1.45 16.4-.66a25.16 25.16 0 0 0 12.69-10.33c1.09-1.62 2.09-3.36 4.1-4.07 4.66-1 9.38-2.65 14.1-.13Z" class="cls-19"/><path d="M531.42 731.15c13 6.4 26.87 10.31 40.57 14.63 12.45 3.93 25 7.68 38 9.67 8.13 1.26 16.47 1.12 24.7 1.82 10.36.88 20.82 1.36 30.46 5.94a20.67 20.67 0 0 1 6.25 7.21c.93 7.39-3.58 11.31-9.27 14.41-14.4 7.84-30 9-46 8.28.42-2.31 2.54-2.34 4.13-3 3.49-1.49 7.16-2.59 10.28-4.87 6.45-4.72 7.09-11.14 1.57-16.94-3.77-4-8.72-5.88-13.8-7.5-2-.64-4.23-.9-5.89-2.45-35.42-8.15-70.22-18.25-103.13-34.09a309.09 309.09 0 0 0-39.59-16.1c-.21-.93 0-1.44 1.06-1 8.95 2.07 17.22 6.12 25.9 9 3.58-.68 6.39 1.46 9.28 2.84 7.87 3.74 16.13 6.68 23.5 11.43Z" class="cls-2"/><path d="M529.44 730.36c-9.34-2.58-17.47-8-26.45-11.41-2.16-.83-4.22-1.9-6.33-2.86 5.33-5.49 11-10.7 15.89-16.54 3.52-4.2 5.36-2 7.39.9 6.27 8.97 9.06 19.07 9.5 29.91Z" class="cls-20"/><path d="M613.45 714.34c-5.14 3.66-10.88 1.86-16.35 1.52-2.9-.17-5.71-1.61-8.56-2.47-14.46-7.48-20.15-20.44-22-35.64-2.56-20.67 1.4-40.92 4.48-61.19 2.26-14.9 5.84-29.54 9.39-44.18-.71-6.46 2.31-12.1 3.93-18a3.28 3.28 0 0 1 1.07-1.06c.83 0 1.5.12 1.11 1.23l-1.86 10.09c.79 2.2-.06 4.27-.58 6.33-6.4 25.48-11.62 51.2-13.74 77.4-1 12.17-1.75 24.57 1.59 36.64 3 10.83 8.66 19.69 19 25 4.57 2.33 9.42 3 14.48 3 2.7-.11 5.67-.9 8.04 1.33ZM467.57 657.36c-6.09-2.1-6.12-2.11-4-8.08q9.74-28 19.51-55.94a15.08 15.08 0 0 1 4.11-6.57c.52 3.71-.75 6.61-1.74 9.47-6.19 17.87-12.51 35.7-18.74 53.56-.9 2.59-2.64 5.54 1.83 6.74.13.81.07 1.37-.97.82Z" class="cls-21"/><path d="M427.59 696.18a44 44 0 0 1-12.95-.93 94.73 94.73 0 0 1-3.9-34c2.37 8.18 4.2 16.54 8.53 24 2.32 3.99 5.42 7.38 8.32 10.93Z" style="fill:#c2e3f7"/><path d="M585.31 553.66q-2.46 9.36-4.94 18.72c-.61-1-1.63-1.84-1.77-2.85-1.35-9.81-7.58-14.09-16.79-15.13.29-1.3.57-2.59.86-3.88 7.81-.84 15.4-.11 22.64 3.14Z" style="fill:#31a761"/><path d="m467.57 657.36.93-.83c12.4 5.16 23.16 12.81 33 21.83.24.87.09 1.35-.95.94-9.96-8.84-21.32-15.61-32.98-21.94Z" style="fill:#914e83"/><path d="m470.76 707.12-1.06 1-11.09-3.87c-.34-.21-.46-.42-.35-.64s.22-.32.34-.32c4.15.97 8.34 1.81 12.16 3.83Z" style="fill:#5d448a"/><path d="M500.58 679.3c.31-.32.63-.63.95-.94a22.11 22.11 0 0 1 7.31 8.46Z" style="fill:#99509a"/><path d="M458.6 703.33v1l-5-1.09q-.45-.32-.3-.63c.1-.22.2-.32.3-.32a8.74 8.74 0 0 1 5 1.04Z" style="fill:#56498b"/><path d="M453.62 702.25v1c-1.26-.83-3-.57-4.05-1.92 1.43.04 2.94-.4 4.05.92Z" style="fill:#5d4b92"/><path d="M613.45 714.34c-5.3-.13-10.69.78-15.9-.53-17-4.27-24.92-16.68-28-32.73-2.66-14-1.56-28.16.1-42.16a513.59 513.59 0 0 1 13.74-71.11 32 32 0 0 1 1.2-3.22c3-.69 6.07-1.56 9.15-2 7.54-1.16 13.39 2.34 18.72 7.13 2 .6 2.62 2.41 3.3 4.08 9.82 24.12 15.5 49.29 19 75 2.31 14.07.5 27.94-2.1 41.75-.66 3.52-1.32 7.2-4.31 9.76-3.35 6.29-7.44 11.97-14.9 14.03Z" class="cls-4"/><path d="M633.59 648.27c-4.35-26.92-9.86-53.53-21.1-78.6q1.57-4.57 3.17-9.16c6 4.34 8.34 11.06 10.67 17.53 7.37 20.41 11.5 41.65 15 63 .45 2.76 2.52 5.68-.14 8.43-2.84 1.74-5.28.66-7.6-1.2Z" class="cls-5"/><path d="m585.31 553.66-22.64-3.14c.91-4.29 3.5-5.08 7.37-3.75a37.36 37.36 0 0 0 16.09 1.79c2 1.93.28 3.35-.65 4.88Z" style="fill:#fafaf9"/><path d="M599.52 505.82c4.2.8 8.9.78 10.07 6.36a2.12 2.12 0 0 0 1.36 1.21c1.27.37 3.15.44 1.51 2.29-1.17 1.32-3.42 2.72-4.6.52-2.32-4.33-4.87-7.84-10.34-7.9a1.08 1.08 0 0 1-.84-1.51c.49-1.56 1.77-1.13 2.84-.97Z" style="fill:#8e4e72"/><path d="M577.45 494.34c-2 .28-2.21-1.35-2.77-2.42-1.54-3-4-4.17-7.22-4.39-4.92-.35-5.32-1.18-3.49-6.26 4.2 2.84 10.25 3 12.59 8.57.61 1.44 1.67 2.81.89 4.5Z" style="fill:#8e4f72"/><path d="M532 476.14c5.48-6.2 8.78-6.55 14-2.29.13.1 0 .38-.12.33-3.4-1.06-4.9-2.54-5.91-.78-.68 1.19.14 4.45.49 6.56.15.89.11 2.25-1.36 2a2 2 0 0 1-1.49-2.32c.12-2 .63-5.6-.64-6-.83-.29-2.54 2.87-4.5 3.06-.21.01-.58-.42-.47-.56Z" style="fill:#905073"/><path d="M567.05 506.12c5 5.45 10.33 10.17 17.81 11.7a1.07 1.07 0 0 1 .82 1.52c-.64 1.31-1.91 1.29-3 1-7.68-2.01-13.03-6.57-15.63-14.22Z" style="fill:#8f5073"/><path d="M588.69 496.09c-.31 5.48-6.21 4.55-8.38 8-.28.44-1.42-.63-1.63-1.42-.4-1.54.45-2.52 1.78-3.11 2.69-1.22 5.81-1.32 8.23-3.47Z" style="fill:#915173"/><path d="M612.69 525.68a3.66 3.66 0 0 0-3.09 1.18c-.79.8-1.45 1.72-2.18 2.59-2.8 2-4.9 4.76-7.23 7.3-4.14 4.52-7.47 10.15-14.06 11.81.7 1.75-.58 3.24-.65 4.88l1 1.06c1.53-1 .52-3.2 2.28-4.21 8.22-4.68 12.53-13.11 18.69-19.76 2.15-.61 3.06-4.61 5.33-3.19 1.78 1.1-.93 3.35-1.29 5.18-.58 1.73-1.17 3.45-1.94 5.71a11.6 11.6 0 0 0 4.94-5.73c2.63-5.13-.92-6.5-1.8-6.82Z" style="fill:#935474"/><path d="m633.59 648.27 7.64 1.2 2.15.91c0 16.25 2.23 32.5.06 48.75l-15 1.15c5.56-16.95 6.96-34.28 5.15-52.01ZM383.75 725.17c2.72 18 14.29 29.83 28.07 40.1-.85 3.5-2.72 6.08-6.39 7l-3.88-.94 3.54-.42C388 760 382.83 744 383.75 725.17Z" class="cls-36"/><path d="M528.61 305.56c-.05.52-.11 1-.16 1.57l-4.78-2.88c2.44-.78 3.65.4 4.94 1.31Z" style="fill:#4a5d77"/><path d="M612.41 758.33c7.39 1 14.34 3.22 19.89 8.35 7.26 6.71 6.44 14.37-1.68 20-4.45 3.08-9.79 4-14.5 6.45h-3.56Z" class="cls-20"/><path d="m405.43 772.29 6.39-7c12.86 7.79 26.82 13.2 40.73 18.7-11.07 2.19-22.19 3.91-33.55 3.33a22.12 22.12 0 0 1-9.07-2.37c-5.05-2.61-6.18-5.9-4.5-12.66Z" class="cls-2"/></svg>