<svg xmlns="http://www.w3.org/2000/svg" fill="none" viewBox="0 0 536 516"><path fill="#FFFDFD" d="M157.375 469.814c40.994 19.797 147.22 57.776 232.71 42.158 23.648-4.325 45.749-17.111 60.447-36.633 32.057-42.582 5.516-82.372-16.447-117.008-17.421-27.48-32.887-63.075-15.901-92.816 12.405-21.71 37.66-31.956 59.194-44.758 27.706-16.486 53.114-42.373 57.147-73.685 5.081-39.32-25.619-73.568-61.314-88.52-35.679-14.947-76.133-15.863-114.773-22.129-55.237-8.938-107.799-29.058-163.627-34.9C138.982-4.322 75.704 7.246 36.724 50.288 6.048 84.185-4.154 132.443 1.506 176.064c5.681 43.611 25.477 83.374 48.268 120.12 18.218 29.387 39.09 58.926 42.562 93.985 2.313 23.297-8.198 7.283 3.508 27.063 12.877 21.806 38.652 41.528 61.531 52.582Z"/></svg>