<svg xmlns="http://www.w3.org/2000/svg" class="thumbnail-icon" viewBox="0 32.802 200 134.396"><path d="M194.348 73.76c-11.619 14.201-28.284 10.68-39.55 9.741 4.694-9.975 9.271-19.599 13.613-29.926 3.756-9.624 7.042-20.773-.117-20.773-9.389 0-18.895 13.379-27.697 25.702-5.046 7.159-9.623 14.083-14.553 21.477-7.51-1.057-15.374-1.526-23.12-1.878 2.465-5.399 2.7-10.915-1.29-15.374-5.751-6.455-18.309-4.695-25.702-3.639-11.736 1.644-22.885 5.986-33.096 11.854C24.998 81.27 10.093 98.17 3.286 117.653c-3.873 11.267-5.398 24.88 1.526 35.208 9.506 13.966 33.917 18.543 55.863 10.093 35.443-13.731 55.746-53.986 71.824-77.692l9.154.939-3.873 7.98c-6.22 12.792-12.205 25.35-17.369 38.377-2.816 6.924-5.164 14.083-6.103 21.594-.469 3.169-.704 8.098 2.7 9.858 14.67 7.042 26.171-11.736 35.677-25.467 1.056-1.643-1.408-3.169-2.582-1.526-6.924 9.859-19.13 28.284-24.293 23.003-.704-3.051.47-7.863.821-9.624 1.643-8.332 4.812-16.195 8.098-23.941 5.633-13.027 11.267-25.467 17.604-38.142l.352-.704c25.35 2.817 36.382 1.29 46.475-11.736 2.934-3.873-2.582-4.93-4.812-2.113zm-59.032 7.394 23.941-34.973c1.643 2.934-11.149 27.11-15.374 35.912zM33.682 163.893c-18.777 0-31.804-13.497-31.217-29.927.469-9.623 4.342-19.247 8.919-27.462 13.262-23.59 38.26-39.902 64.783-44.01 7.51-1.174 24.645-3.051 24.88 8.215 0 2.7-.704 5.281-1.995 7.863-11.15-.117-22.299.94-32.509 4.812-4.342 1.643-11.15 6.572-13.496 12.205-1.057 2.465-.822 4.695.47 7.277 3.99 7.51 19.363 3.52 26.405-.704 5.516-3.287 15.492-11.502 20.773-20.186 7.628.117 15.14.821 22.768 1.76-4.93 7.276-9.741 14.553-14.788 21.829-20.42 29.692-40.254 57.976-74.993 58.328zm63.492-81.917c-3.051 4.577-7.394 8.684-10.797 11.736-3.756 3.286-7.863 6.102-12.323 8.332-7.276 3.638-22.885 3.99-16.548-8.215 5.516-10.328 23.59-11.15 33.33-11.736 2.113-.117 4.225-.117 6.338-.117z" data-paper-data="{&quot;fillRule&quot;:&quot;nonzero&quot;,&quot;isIcon&quot;:&quot;true&quot;,&quot;iconType&quot;:&quot;icon&quot;,&quot;rawIconId&quot;:&quot;ae6c86c5-5784-4bfc-92c0-c3625dbd2fa9&quot;,&quot;selectedEffects&quot;:{&quot;container&quot;:&quot;&quot;,&quot;transformation&quot;:&quot;&quot;,&quot;pattern&quot;:&quot;&quot;},&quot;isDetailed&quot;:false,&quot;bounds&quot;:{&quot;x&quot;:187.59444671981214,&quot;y&quot;:134.3600812672852,&quot;width&quot;:174.81110656037572,&quot;height&quot;:117.46975346729789},&quot;iconStyle&quot;:&quot;standalone&quot;}"/></svg>